HIERARCHY
ROOT Hips
{
  OFFSET 13.6774 106.653 -34.4427
  CHANNELS 6 Xposition Yposition Zposition Zrotation Xrotation Yrotation
  JOINT ToSpine
  {
    OFFSET -2.69724 7.43032 -0.144315
    CHANNELS 3 Zrotation Xrotation Yrotation
    JOINT Spine
    {
      OFFSET -0.0310711 10.7595 1.96963
      CHANNELS 3 Zrotation Xrotation Yrotation
      JOINT Spine1
      {
        OFFSET 19.9056 3.91189 0.764692
        CHANNELS 3 Zrotation Xrotation Yrotation
        JOINT Neck
        {
          OFFSET 25.9749 7.03908 -0.130764
          CHANNELS 3 Zrotation Xrotation Yrotation
          JOINT Head
          {
            OFFSET 9.52751 0.295786 -0.907742
            CHANNELS 3 Zrotation Xrotation Yrotation
            End Site
            {
              OFFSET 16.4037 0.713936 2.7358
            }
          }
        }
        JOINT LeftShoulder
        {
          OFFSET 17.7449 4.33886 11.7777
          CHANNELS 3 Zrotation Xrotation Yrotation
          JOINT LeftArm
          {
            OFFSET 0.911315 1.27913 9.80584
            CHANNELS 3 Zrotation Xrotation Yrotation
            JOINT LeftForeArm
            {
              OFFSET 28.6126 1.18197 -3.53199
              CHANNELS 3 Zrotation Xrotation Yrotation
              JOINT LeftHand
              {
                OFFSET 27.5088 0.0218783 0.327423
                CHANNELS 3 Zrotation Xrotation Yrotation
                End Site
                {
                  OFFSET 18.6038 -0.000155887 0.382096
                }
              }
            }
          }
        }
        JOINT RightShoulder
        {
          OFFSET 17.1009 2.89543 -12.2328
          CHANNELS 3 Zrotation Xrotation Yrotation
          JOINT RightArm
          {
            OFFSET 1.4228 0.178766 -10.211
            CHANNELS 3 Zrotation Xrotation Yrotation
            JOINT RightForeArm
            {
              OFFSET 28.733 1.87905 2.64907
              CHANNELS 3 Zrotation Xrotation Yrotation
              JOINT RightHand
              {
                OFFSET 27.4588 0.290562 -0.101845
                CHANNELS 3 Zrotation Xrotation Yrotation
                End Site
                {
                  OFFSET 17.8396 -0.255518 -0.000602873
                }
              }
            }
          }
        }
      }
    }
  }
  JOINT LeftUpLeg
  {
    OFFSET -5.61296 -2.22332 -10.2353
    CHANNELS 3 Zrotation Xrotation Yrotation
    JOINT LeftLeg
    {
      OFFSET 2.56703 -44.7417 -7.93097
      CHANNELS 3 Zrotation Xrotation Yrotation
      JOINT LeftFoot
      {
        OFFSET 3.16933 -46.5642 -3.96578
        CHANNELS 3 Zrotation Xrotation Yrotation
        JOINT LeftToeBase
        {
          OFFSET 0.346054 -6.02161 12.8035
          CHANNELS 3 Zrotation Xrotation Yrotation
          End Site
          {
            OFFSET 0.134235 -1.35082 5.13018
          }
        }
      }
    }
  }
  JOINT RightUpLeg
  {
    OFFSET -5.7928 -1.72406 10.6446
    CHANNELS 3 Zrotation Xrotation Yrotation
    JOINT RightLeg
    {
      OFFSET -2.57161 -44.7178 -7.85259
      CHANNELS 3 Zrotation Xrotation Yrotation
      JOINT RightFoot
      {
        OFFSET -3.10148 -46.5936 -4.03391
        CHANNELS 3 Zrotation Xrotation Yrotation
        JOINT RightToeBase
        {
          OFFSET -0.0828122 -6.13587 12.8035
          CHANNELS 3 Zrotation Xrotation Yrotation
          End Site
          {
            OFFSET -0.131328 -1.35082 5.13018
          }
        }
      }
    }
  }
}
MOTION
Frames: 12
Frame Time: 0.03333333333333333
0.0000 93.1000 0.0000 -52.4863 -3.2595 170.5630 -70.9181 -0.1845 88.1818 147.3743 68.8625 -62.1179 0.7816 29.4966 -6.9314 -162.6607 25.1193 171.2832 -154.2072 63.4470 177.3770 1.0384 -4.4935 -23.9122 -90.8479 50.4851 -58.7261 -4.9955 27.9155 -8.6688 9.7194 -1.0502 -6.5029 -0.1116 0.9018 12.3503 -93.8613 -50.8324 113.8312 13.2875 0.7921 100.4043 9.8540 0.2771 4.1448 7.9157 1.4160 97.2402 -94.5110 84.5323 82.1246 3.7203 -0.1350 -0.8553 -9.2859 -39.8698 13.2012 -66.4605 3.2011 94.2848 2.3318 41.8374 13.3341 -7.9048 -8.3990 0.9991 -19.0391 18.2663 20.2112 
0.0000 93.1000 0.0000 -51.9846 -5.5395 170.9702 -70.8381 -0.2680 88.2644 140.3321 69.4489 -54.6825 3.4756 28.6958 -9.9237 -160.5653 24.6723 169.9041 -152.4813 63.4748 174.9523 1.2919 -4.3157 -24.4133 -86.0080 49.6132 -68.4865 -4.0349 23.0161 -9.4869 7.5521 -1.4626 -7.1906 -0.4570 -0.2994 13.6132 -85.9924 -49.8336 114.7276 15.8175 2.3447 102.4951 8.7906 0.0336 4.5600 3.5170 1.3448 100.4929 -35.8111 82.5139 24.4518 4.0027 1.6872 -0.6021 -8.9964 -38.7469 14.0669 -67.4319 2.8843 89.8031 2.2597 43.9377 6.9309 -3.3850 0.6237 -0.4651 -42.5107 43.4531 40.0225 
0.0000 93.1000 0.0000 -53.6056 -4.8634 173.4872 -70.8684 -0.3695 88.2291 135.5073 69.7464 -50.6434 7.8558 27.0180 -10.2221 -159.7598 23.4401 168.5831 -153.0120 62.5009 175.1293 2.1589 -2.6390 -27.4160 -68.6929 47.3519 -91.5184 -0.9953 6.9499 -17.0078 7.9770 -1.8900 -7.2049 -0.1448 0.0116 17.4111 -75.1577 -48.8042 113.9026 20.8538 1.1314 94.2676 8.1672 -0.4991 4.1567 -5.5532 0.8248 100.2027 -24.5727 79.2239 12.6475 4.2366 2.6374 -0.3565 -8.7103 -36.9352 15.6443 -61.1415 5.6380 87.8248 4.9249 65.4226 -4.0662 -3.6884 1.3231 -1.1345 -30.3481 47.5798 19.2359 
0.0000 93.1000 0.0000 -55.5506 -5.5632 170.8191 -70.9217 -0.3592 88.1383 134.3618 69.3533 -54.1345 10.9804 25.5459 -10.2320 -162.9007 22.2433 168.7494 -154.0602 61.6809 175.8699 2.3055 0.0862 -29.0766 -71.1794 39.5471 -101.4778 3.6386 3.4028 -23.4918 9.8186 -1.4301 -6.9695 0.4047 0.0712 21.0945 -65.5231 -51.7630 111.8324 20.3241 -4.6244 77.3516 7.0666 -0.1006 3.2953 -18.8729 -3.1243 100.3722 -13.0583 73.8317 -2.2815 4.3584 1.2323 -0.7119 -9.9406 -42.3166 12.0543 -52.9393 5.8016 89.6537 108.6459 85.9236 -109.4251 -5.9726 0.4987 -0.6306 -12.3818 41.5573 -2.2096 
0.0000 93.1000 0.0000 -57.9219 -7.9413 165.6543 -71.0060 -0.3789 87.9944 132.4910 67.6211 -58.1991 8.1448 24.6561 -8.6508 -164.1585 22.5791 170.8441 -157.4814 61.3590 -181.3309 2.6648 1.8189 -31.0996 -78.3945 31.4399 -112.2916 3.9757 3.6161 -26.6649 12.6586 -1.6734 -6.4543 0.4485 0.4126 24.7741 -64.2912 -55.7518 104.6413 20.0938 -12.7924 54.0052 8.6090 -0.3808 1.9507 -27.9202 -11.2607 99.8083 -9.6214 68.4974 -3.0955 5.8066 1.4594 -0.8576 -10.9798 -46.6318 11.5099 -38.9982 1.8861 91.7941 169.3232 66.2928 -167.9833 -7.3664 -3.8726 -0.0875 2.1059 29.4277 -18.9377 
0.0000 93.1000 0.0000 -55.5892 -14.5800 166.8584 -70.9970 -0.4075 87.9960 127.7524 66.1058 -54.6872 2.0874 22.9353 -5.4155 -164.4683 23.0220 171.0660 -158.9951 62.3680 -179.9039 2.4850 1.1744 -29.2233 -90.0594 32.1328 -121.4907 7.7664 7.3645 -37.4545 13.2476 -1.7630 -5.5782 0.1472 -0.0556 26.5772 -73.7118 -60.6466 81.8647 21.5932 -20.0766 44.4754 9.9088 -0.6577 0.4939 -33.5985 -16.8808 93.4850 -8.0663 64.3357 -6.4368 4.7792 0.0629 -0.6867 -11.4062 -47.2994 10.2614 -18.4655 -1.1461 91.9361 170.6826 52.8449 -172.5895 -8.2279 -5.9411 0.9015 7.6523 7.6345 -24.0950 
0.0000 93.1000 0.0000 -54.5523 -14.0752 169.9386 -71.0043 -0.4450 88.0139 123.7527 66.0540 -50.1910 -2.4044 21.6010 -2.8185 -163.5907 21.3427 171.1256 -159.6221 61.2468 -182.4441 2.6235 0.9975 -26.1197 -95.5511 38.2132 -128.1465 13.6901 8.6110 -52.5876 14.6169 -2.0301 -5.4151 -0.1245 0.9158 24.9527 -73.8310 -64.8772 66.7166 21.6969 -20.2986 45.1759 9.5920 -0.9014 0.3610 -45.2678 -12.8243 90.1558 -5.3366 56.6808 -12.0235 6.3835 -2.3659 -1.1488 -11.4122 -47.2739 12.0812 -2.8903 1.6309 92.5837 170.6775 53.9061 -172.2952 -9.2767 -5.6785 1.3887 9.3040 -12.6902 -20.7559 
0.0000 93.1000 0.0000 -53.2022 -13.4965 175.4480 -70.9651 -0.3642 88.0554 118.3792 66.0301 -41.8134 -3.9064 20.0926 0.8262 -162.6396 19.0795 169.0930 -156.4560 58.4345 172.1313 1.8560 1.0965 -22.8311 -96.0903 40.2747 -128.3346 21.5920 6.4538 -70.0373 15.6753 -1.3067 -6.0065 -0.4266 2.3118 22.4039 -73.8108 -68.9426 55.6607 16.2314 -14.1289 44.5477 8.7602 0.0194 1.8114 -58.3160 -8.6098 82.8851 -3.1747 44.8780 -13.3453 3.2431 -4.3100 -1.4997 -8.3839 -35.5241 12.6701 5.6828 1.5635 91.7359 167.1671 67.7936 -166.1107 -8.9067 -6.7278 2.0014 10.4142 -22.8079 -17.8097 
0.0000 93.1000 0.0000 -54.4762 -9.5328 -180.1844 -70.9546 -0.5102 88.0441 120.5618 65.8538 -39.1777 -3.1350 19.4079 4.2960 -163.0160 18.7902 171.0602 -153.7951 56.6493 170.1264 2.3135 1.7962 -21.8743 -89.9819 40.2094 -126.2950 24.1486 3.3915 -80.1172 15.8108 -1.6862 -6.7664 -0.6379 4.3000 20.8899 -79.4872 -67.1678 47.7649 6.7674 -4.7920 41.0788 8.5222 -0.4373 2.9622 -68.4838 -1.5416 83.9860 0.7998 37.6545 -14.8062 -2.8221 2.3588 0.5933 -4.0786 -3.0451 7.4221 5.2813 2.3574 88.0505 99.7220 85.5701 -96.1246 -8.0117 -7.9527 1.0147 10.9949 -25.8622 -16.7435 
0.0000 93.1000 0.0000 -54.9645 -5.7529 -178.4180 -70.9766 -0.3933 88.1032 122.7309 66.0844 -40.2676 0.0888 19.4230 5.2450 -165.2613 17.2603 172.8322 -153.1806 54.6310 169.8877 2.1982 1.6903 -22.9540 -82.2889 39.6419 -124.4642 22.7399 3.5560 -78.6738 14.4831 -1.3046 -7.1331 -0.6552 4.2765 23.9108 -81.9106 -61.1129 50.6813 -0.4420 3.0424 40.2615 7.0211 -0.0019 2.2037 -68.6675 -2.7565 78.9741 -3.1030 49.7788 -7.3312 -0.6215 6.7671 0.0488 -5.1448 -8.1810 14.1462 1.1771 2.3268 85.4906 9.3059 72.6240 -4.0760 -7.8845 -4.8992 1.1086 12.3046 -29.6642 -16.4519 
0.0000 93.1000 0.0000 -58.3849 -1.1237 -178.0162 -70.9862 -0.4893 88.0945 126.5615 64.9976 -40.9787 4.7756 19.9069 4.0851 -166.4743 15.4659 172.2021 -150.8696 52.1192 167.7610 2.7682 1.5580 -24.9869 -77.1392 39.7778 -120.3715 17.9842 8.2816 -61.5184 13.1173 -1.7266 -6.3706 -0.5028 2.7370 26.2422 -83.0434 -56.7352 60.7212 -2.3509 5.0581 43.2673 7.9676 -0.5367 2.1154 -63.1468 -4.9561 79.8845 -14.2861 75.4985 5.8023 -1.6894 7.6902 0.7407 -6.3198 -15.3573 14.0154 -4.2931 1.8093 80.1185 8.0845 68.8686 -0.5773 -7.4296 -4.7347 0.6402 10.2143 -23.8542 -13.8903 
0.0000 93.1000 0.0000 -63.2160 4.5844 -175.2743 -71.0267 -0.3401 88.0141 136.6269 64.3241 -46.8975 7.9982 21.4636 3.0706 -165.3379 14.7378 174.8508 -148.0919 51.4534 166.7682 2.1692 2.3921 -28.0021 -71.8563 40.4868 -117.3810 14.2967 15.7372 -36.8437 10.3858 -0.8813 -6.2048 -0.4919 0.6956 27.9925 -84.9219 -51.7812 72.7221 -2.5575 4.2504 46.4250 6.6527 0.1751 2.7368 -56.1818 -2.4528 83.9322 -156.5982 76.6038 148.7051 0.0436 7.7774 -0.2799 -6.4447 -19.6721 13.1874 -16.0966 5.7909 73.3550 8.1201 68.7456 0.7620 -7.0889 -7.0547 0.5563 7.2365 -10.3215 -15.9237 
